<?xml version="1.0" encoding="utf-8"?>
<!-- Generator: Adobe Illustrator 16.0.0, SVG Export Plug-In . SVG Version: 6.00 Build 0)  -->
<!DOCTYPE svg PUBLIC "-//W3C//DTD SVG 1.1//EN" "http://www.w3.org/Graphics/SVG/1.1/DTD/svg11.dtd">
<svg version="1.1" id="Layer_1" xmlns="http://www.w3.org/2000/svg" xmlns:xlink="http://www.w3.org/1999/xlink" x="0px" y="0px"
	 width="445.5px" height="437px" viewBox="0 0 445.5 437" enable-background="new 0 0 445.5 437" xml:space="preserve">
<path fill="#222222" d="M111.071,316c0,0,25.982,14.509,110.825,14.708c0,0,59.194,3.084,119.619-13.967
	c0,0-9.968,16.924-56.843,24.946c-15.049,2.574-80.323,6.145-107.472,2.061C154.532,340.338,128.882,332.669,111.071,316z"/>
<path fill="#642D10" d="M387.525,201.357c0,0-19.458-25.847-28.711-68.525c-1.61-4.079-10.971-44.665-26.192-63.412
	c-0.906-1.117,14.744-18.026,15.681-19.445c8.578-13.006-40.547-34.888-41.472-23.475c-0.354-0.13-2.613,30.244-6.185,29.579
	c-9.848-1.833-17.7-6.094-36.707-8.431c-2.959-0.364,5.203,0.623,2.329,0.305c-0.998-0.11-7.479-33.128-10.711-28.811
	c-3.475,4.642-6.407,15.998-8.54,14.858c-8.656-4.625-7.618-37.25-10.85-31.332C233.202,8.101,223.736,30.381,216.453,33
	c-2.086,0.75-2.444-7.499-1.059-11.166c1.8-4.767-18.87,15.432-21.697,17.938c-3.76,3.334-14.302,7.748-14.795,8.082
	c-14.794,1.824-18.581,3.944-31.109,8.312c-2.007,0.453-3.293-26.669-10.837-29.959C129.439,22.929,97.316,38.505,96,51.298
	c-0.834,8.114,22.57,24.123,19.678,28.206c-9.546,13.476-22.211,40.939-28.621,58.997c-11.695,32.95-33.199,55.452-41.195,62.857
	c0,0-15.72,14.696-24.974,35.145c-33.432,73.873-4.056,21.526-4.234,26.979c-0.003,0.094-1.341,6.946-3.161,16.337
	C9.67,299.531,3.717,330.435,3.499,333.5c-0.461,6.5,9.002-36.5,26.09-12.102c1.832,2.615,8.237,12.452,8.998,13.701
	c20.337,29.105,103.248,77.319,158.405,95.271c5.094,1.658,17.819,3.498,30.25,3.504c11.498,0.006,22.768-1.854,28.008-3.131
	c36.202-8.821,82.587-30.465,120.798-56.984c16.693-11.585,29.939-18.202,38.575-38.522c0.994-2.339,1.927-4.858,2.795-7.588
	c0.49-1.537,0.96-3.142,1.408-4.817c2.636-9.824,10.772,17.086,11.389,15.003c2.971-10.036,3.684-30.499-0.775-53.903
	c-1.943-10.204,36.63,32.068-9.024-31.669C409.269,236.703,486.381,302,387.525,201.357z"/>
<path opacity="0.6" fill="#431F11" d="M290.268,358.927c-70.938,77.833-129.738,1.467-129.738,1.467
	c-64.123-66.5,4.232-149.153,4.232-149.153l-6.967-6.316c-22.955-4.503,4.05-36.405,4.05-36.405
	c-9.03-3.003-16.187-23.375,7.792-29.917c1.538-0.419,4.921-0.926,4.327-2.708c-3-9-19.021-14.581-16.806-22.707
	c2.708-9.94,26.27-32.293,37.58-40.793c2-1.503-17.434,0.54-24.493,1.988c-9.802,2.012,8.657-26.527,8.657-26.527
	c-15.224,2.733-12.652,1.958-31.453,8.206c0,0-2.959-11.834-5.219-21.882c-0.154-0.686-1.667-6.616-6.142-8.243
	c-3.33-1.211-10.791,1.619-17.062,4.489C103.139,37.696,96.25,46.688,96,51.298c-0.051,0.943-0.688,3.327,7.257,12.104
	c9.42,10.407,13.868,13.723,12.42,16.102c-2.877,4.729-15.49,24.621-25.39,50.246c-14.663,46.5-45.706,72.527-45.706,72.527
	C33.838,213.93,25.81,226.161,20.5,237.188c-2.092,4.345-12.962,27.779-15.657,38.69c-0.089,0.362,0.198,1.164,1.811-0.602
	c1.55-1.696,4.024-4.977,6.547-8.61c4.237-6.104,3.276-2.238,3.453-3.185c0.513-2.748-16.779,83.081-12.309,69.036
	c2.032-6.385,7.729-19.014,14.965-18.643c9.752,0.5,14.127,16.875,24.725,27.975c42.512,44.525,138.215,83.403,138.215,83.403
	c17.833,7.166,30.988,8.829,44.99,8.622c10.304-0.152,33.727-2.874,54.48-11.229c13.658-5.499,28.781-11.125,43.1-18.583
	c40.262-20.971,80.77-47.412,85.859-60.967c2.675-7.124,2.878-3.098,7.92-19.499c0.32-1.042,0.98-4.089,2.814-2.256
	c4.086,4.084,8.758,16.947,8.8,16.494C437.932,253.413,306.938,340.638,290.268,358.927z"/>
<path fill="#629999" d="M151.685,211.165c-7.258-7.214-5.798-45.17,16.805-45.17c15.67,0,23.103,35.292,14.741,44.837
	C177.681,217.171,158.502,217.942,151.685,211.165z"/>
<path fill="#222222" d="M182.208,192.377c0,8.897-6.66,16.107-14.872,16.107c-8.214,0-14.872-7.21-14.872-16.107
	c0-8.893,6.658-16.104,14.872-16.104C175.549,176.273,182.208,183.484,182.208,192.377z"/>
<path fill="#FFFFFF" d="M170.76,180.14c0.171,4.959-2.87,9.104-6.792,9.267c-3.924,0.157-7.244-3.73-7.416-8.689
	c-0.172-4.957,2.87-9.103,6.792-9.262C167.268,171.295,170.588,175.184,170.76,180.14z"/>
<path fill="#629999" d="M264.181,211.165c-7.258-7.214-5.797-45.17,16.806-45.17c15.67,0,23.104,35.292,14.741,44.837
	C290.178,217.171,270.999,217.942,264.181,211.165z"/>
<path fill="#222222" d="M294.617,192.377c0,8.897-6.66,16.107-14.872,16.107s-14.872-7.21-14.872-16.107
	c0-8.893,6.66-16.104,14.872-16.104S294.617,183.484,294.617,192.377z"/>
<path fill="#222222" d="M138.332,324.706c0,0,20.048,37.544,85.516,38.059c0,0,45.674,7.985,92.301-36.14
	c0,0-13.423,76.429-88.193,75.207C227.957,401.832,168.537,419.5,138.332,324.706z"/>
<path fill="#FFFFFF" d="M223.49,316c0,0-1.4,46.217-42.147,40.094c0,0,14.114,70.692,19.805,72.045
	c17.138,4.075,29.876,5.391,52.89-1.342c0,0,11.564-41.115,12.067-69.313c0,0-10.201,2.966-19.204-3.608
	C235.923,345.857,223.388,334.25,223.49,316z"/>
<path fill="#FFFFFF" d="M283.247,180.14c0.172,4.959-2.868,9.104-6.791,9.267c-3.924,0.157-7.244-3.73-7.415-8.689
	c-0.171-4.957,2.871-9.103,6.791-9.262C279.757,171.295,283.076,175.184,283.247,180.14z"/>
<path opacity="0.2" fill="#FFFFFF" d="M318.997,298.75c0,6.277,1.635,24.31-2.654,27.875c-9.676,8.042-13.578,12.488-27.18,20.51
	c-5.189,3.061-15.401,7.577-21.728,10.031c-5.852,2.27-15.576,3.181-21.342,0.759c-5.369-2.255-7.778-6.169-13.292-9.279
	c-2.729-1.539-5.677-3.898-8.377-3.898c-2.393,0-3.598,1.979-5.437,3.111c-3.16,1.944-7.023,6.393-10.749,7.392
	c-8.461,2.269-14.814,3.766-22.406,2c-8.211-1.909-14.211-4.685-21.257-8.5c-11.079-6-21.357-16.281-26.049-24.044
	c-3.268-5.405-4.65-21.758-4.65-28.706c0-33.482,40.706-59.498,89.808-59.498C272.787,236.502,318.997,265.268,318.997,298.75z"/>
<path fill="#666766" d="M224.277,327.61c-0.369-5.656-0.822-8.965-0.895-8.624c-1.46,6.966,0.438,55.306,2.909,78.293
	L224.277,327.61z"/>
<path fill="#7C5C3F" d="M132.419,65.784c-2.427,1.448-3.613,3.183-5.929,2.469c-1.218-0.376-5.14-3.927-6.026-4.971l-13.296-12.164
	c-1.68-1.955,3.761-7.764,10.694-11.703c5.585-3.174,13.099-7.604,14.569-3.719l3.647,18.899c0.401,1.344,1.107,5.573,0.779,6.86
	C136.33,63.521,134.7,64.422,132.419,65.784L132.419,65.784z"/>
<path opacity="0.2" fill="#FFFFFF" d="M131.651,63.264c-1.632,0.974-0.6-3.504-2.158-3.985c-0.819-0.253-5.548,2.965-5.885,2.302
	l4.898-7.716l-11.746-2.566l9.703-4.414c3.616-5.619-10.638-2.968-5.973-5.619c3.759-2.136,9.386-5.338,10.375-2.724l3.249,17.194
	c0.375,0.738,0.745,3.749,0.524,4.616C134.283,61.742,133.187,62.347,131.651,63.264L131.651,63.264z"/>
<ellipse fill="#222222" cx="151.67" cy="286.395" rx="0.79" ry="0.855"/>
<ellipse fill="#222222" cx="152.459" cy="306.414" rx="0.79" ry="0.855"/>
<ellipse fill="#222222" cx="164.267" cy="289.75" rx="0.79" ry="0.855"/>
<ellipse fill="#232323" cx="281.274" cy="298.068" rx="0.79" ry="0.855"/>
<ellipse fill="#222222" cx="296.084" cy="287.25" rx="0.791" ry="0.855"/>
<ellipse fill="#222222" cx="296.875" cy="307.27" rx="0.791" ry="0.855"/>
<path fill="#222222" d="M222.915,267.246c-34.388,0-30.584,9.494-30.45,9.83c1.324,6.072,9.17,37.462,30.281,39.297
	c0,0,21.962,1.639,30.598-39.244C253.491,276.776,256.456,267.246,222.915,267.246z"/>
<path fill="#7C5C3F" d="M316.265,62.8c2.519,1.284,3.816,2.937,6.08,2.071c1.189-0.456,4.864-4.253,5.684-5.359l12.462-13.017
	c1.547-2.062-4.268-7.498-11.445-10.969c-5.783-2.798-13.574-6.72-14.784-2.746l-2.387,19.099c-0.364,1.775-0.736,5.634-0.323,6.897
	C312.214,60.802,313.898,61.593,316.265,62.8L316.265,62.8z"/>
<path opacity="0.2" fill="#FFFFFF" d="M315.931,59.845c1.633,0.974,0.602-3.504,2.158-3.985c0.82-0.253,5.549,2.965,5.885,2.302
	l-4.898-7.716l11.746-2.566l-9.701-4.414c-3.617-5.619,10.637-2.968,5.973-5.619c-3.76-2.136-9.387-5.338-10.375-2.724l-3.25,17.194
	c-0.375,0.738-0.744,3.749-0.523,4.616C313.3,58.323,314.396,58.929,315.931,59.845L315.931,59.845z"/>
</svg>
